<?xml version="1.0" encoding="UTF-8"?>
<svg id="Layer_1" data-name="Layer 1" xmlns="http://www.w3.org/2000/svg" viewBox="0 0 1901 1743">
  <defs>
    <style>
      .cls-1 {
        fill: #f9f9f9;
      }
    </style>
  </defs>
  <path class="cls-1" d="m217.54,1208.82h136.92c133.99,194.6,317.35,304.19,555.42,310.36,192.92,5,359.22-65.35,492.99-203.69,271.46-280.72,253.33-703.65-24.78-962.59C1063.82,60.28,570.36,137.73,354.41,484.82h-138.28c54.26-104.65,126.17-192.05,217.76-263.14C588.04,102.03,763.47,47.92,957.69,55.86c404.41,16.53,721.19,330.66,753.09,718.29,33.89,411.83-230.36,769.07-629.5,848.49-390.56,77.71-723.89-131.5-863.74-413.82Z"/>
  <path class="cls-1" d="m821.73,1168.57h-121.92v-462.76c-24.74,33.02-47.26,63.06-69.78,93.11-43.44,57.98-86.88,115.96-130.32,173.95-11.44,15.27-29.16,15.5-40.42.1-62.92-86.09-125.73-172.26-188.59-258.4-1.4-1.92-2.95-3.73-6.69-8.43-35.12,163.96-9.43,316.1,67.24,462.16h-134.08c-38.62-85.57-59.25-176.11-65.68-269.89-8.32-121.36,28.94-322.61,68.06-373.35h130.34c-6.22,14.93-12.07,28.99-17.56,42.17,29.01,39.83,57.04,78.25,85,116.71,27.97,38.48,55.88,77,85.03,117.18,5.34-7.57,10.08-14.43,14.97-21.19,59.66-82.42,119.27-164.88,179.27-247.06,2.84-3.9,9.23-7.29,14.02-7.36,43.09-.56,86.2-.33,131.1-.33v643.38Z"/>
  <path class="cls-1" d="m1371.13,525.39v115.9h-338.05v176.11h321.34v112.75h-321.96v237.65h-120.05v-642.4h458.72Z"/>
</svg>